<mxfile host="app.diagrams.net" modified="2021-03-17T22:00:33.949Z" agent="5.0 (Windows NT 10.0; Win64; x64) AppleWebKit/537.36 (KHTML, like Gecko) Chrome/89.0.4389.82 Safari/537.36" etag="ZHV1XYzgpjpjquyeE744" version="14.4.9" type="github">
  <diagram id="Lrrr84WbQyKH-l6feyYj" name="Page-1">
    <mxGraphModel dx="1422" dy="804" grid="1" gridSize="10" guides="1" tooltips="1" connect="1" arrows="1" fold="1" page="1" pageScale="1" pageWidth="850" pageHeight="1100" math="0" shadow="0">
      <root>
        <mxCell id="0" />
        <mxCell id="1" parent="0" />
        <mxCell id="P5JAm0jgZ5g8ydLUoScI-19" value="" style="rounded=1;whiteSpace=wrap;html=1;" vertex="1" parent="1">
          <mxGeometry x="610" y="80" width="222.31" height="170" as="geometry" />
        </mxCell>
        <mxCell id="P5JAm0jgZ5g8ydLUoScI-1" value="" style="rounded=1;whiteSpace=wrap;html=1;" vertex="1" parent="1">
          <mxGeometry x="40" y="80" width="222.31" height="170" as="geometry" />
        </mxCell>
        <mxCell id="P5JAm0jgZ5g8ydLUoScI-2" value="10" style="rounded=0;whiteSpace=wrap;html=1;direction=south;fillColor=#dae8fc;strokeColor=#6c8ebf;" vertex="1" parent="1">
          <mxGeometry x="180" y="270" width="60" height="50" as="geometry" />
        </mxCell>
        <mxCell id="P5JAm0jgZ5g8ydLUoScI-3" value="10" style="rounded=0;whiteSpace=wrap;html=1;fillColor=#dae8fc;strokeColor=#6c8ebf;" vertex="1" parent="1">
          <mxGeometry x="180" y="180" width="60" height="50" as="geometry" />
        </mxCell>
        <mxCell id="P5JAm0jgZ5g8ydLUoScI-4" value="" style="rounded=1;whiteSpace=wrap;html=1;" vertex="1" parent="1">
          <mxGeometry x="40" y="260" width="222.31" height="170" as="geometry" />
        </mxCell>
        <mxCell id="P5JAm0jgZ5g8ydLUoScI-5" value="20" style="rounded=0;whiteSpace=wrap;html=1;direction=south;fillColor=#dae8fc;strokeColor=#6c8ebf;" vertex="1" parent="1">
          <mxGeometry x="60" y="150" width="110" height="80" as="geometry" />
        </mxCell>
        <mxCell id="P5JAm0jgZ5g8ydLUoScI-6" value="15" style="rounded=0;whiteSpace=wrap;html=1;fillColor=#dae8fc;strokeColor=#6c8ebf;" vertex="1" parent="1">
          <mxGeometry x="130" y="310" width="60" height="100" as="geometry" />
        </mxCell>
        <mxCell id="P5JAm0jgZ5g8ydLUoScI-7" value="10" style="rounded=0;whiteSpace=wrap;html=1;fillColor=#dae8fc;strokeColor=#6c8ebf;" vertex="1" parent="1">
          <mxGeometry x="60" y="360" width="60" height="50" as="geometry" />
        </mxCell>
        <mxCell id="P5JAm0jgZ5g8ydLUoScI-8" value="10" style="rounded=0;whiteSpace=wrap;html=1;fillColor=#dae8fc;strokeColor=#6c8ebf;" vertex="1" parent="1">
          <mxGeometry x="180" y="120" width="60" height="50" as="geometry" />
        </mxCell>
        <mxCell id="P5JAm0jgZ5g8ydLUoScI-9" value="15" style="rounded=0;whiteSpace=wrap;html=1;fillColor=#f8cecc;strokeColor=#b85450;" vertex="1" parent="1">
          <mxGeometry x="110" y="40" width="60" height="100" as="geometry" />
        </mxCell>
        <mxCell id="P5JAm0jgZ5g8ydLUoScI-10" value="" style="rounded=1;whiteSpace=wrap;html=1;" vertex="1" parent="1">
          <mxGeometry x="370" y="80" width="222.31" height="170" as="geometry" />
        </mxCell>
        <mxCell id="P5JAm0jgZ5g8ydLUoScI-11" value="10" style="rounded=0;whiteSpace=wrap;html=1;direction=south;fillColor=#dae8fc;strokeColor=#6c8ebf;" vertex="1" parent="1">
          <mxGeometry x="510" y="270" width="60" height="50" as="geometry" />
        </mxCell>
        <mxCell id="P5JAm0jgZ5g8ydLUoScI-12" value="10" style="rounded=0;whiteSpace=wrap;html=1;fillColor=#dae8fc;strokeColor=#6c8ebf;" vertex="1" parent="1">
          <mxGeometry x="700" y="180" width="60" height="50" as="geometry" />
        </mxCell>
        <mxCell id="P5JAm0jgZ5g8ydLUoScI-13" value="" style="rounded=1;whiteSpace=wrap;html=1;" vertex="1" parent="1">
          <mxGeometry x="370" y="260" width="222.31" height="170" as="geometry" />
        </mxCell>
        <mxCell id="P5JAm0jgZ5g8ydLUoScI-14" value="20" style="rounded=0;whiteSpace=wrap;html=1;direction=south;fillColor=#dae8fc;strokeColor=#6c8ebf;" vertex="1" parent="1">
          <mxGeometry x="390" y="150" width="110" height="80" as="geometry" />
        </mxCell>
        <mxCell id="P5JAm0jgZ5g8ydLUoScI-15" value="15" style="rounded=0;whiteSpace=wrap;html=1;fillColor=#dae8fc;strokeColor=#6c8ebf;" vertex="1" parent="1">
          <mxGeometry x="460" y="310" width="60" height="100" as="geometry" />
        </mxCell>
        <mxCell id="P5JAm0jgZ5g8ydLUoScI-16" value="10" style="rounded=0;whiteSpace=wrap;html=1;fillColor=#dae8fc;strokeColor=#6c8ebf;" vertex="1" parent="1">
          <mxGeometry x="390" y="360" width="60" height="50" as="geometry" />
        </mxCell>
        <mxCell id="P5JAm0jgZ5g8ydLUoScI-17" value="10" style="rounded=0;whiteSpace=wrap;html=1;fillColor=#dae8fc;strokeColor=#6c8ebf;" vertex="1" parent="1">
          <mxGeometry x="700" y="120" width="60" height="50" as="geometry" />
        </mxCell>
        <mxCell id="P5JAm0jgZ5g8ydLUoScI-18" value="15" style="rounded=0;whiteSpace=wrap;html=1;fillColor=#dae8fc;strokeColor=#6c8ebf;" vertex="1" parent="1">
          <mxGeometry x="630" y="130" width="60" height="100" as="geometry" />
        </mxCell>
        <mxCell id="P5JAm0jgZ5g8ydLUoScI-20" value="" style="shape=flexArrow;endArrow=classic;html=1;" edge="1" parent="1">
          <mxGeometry width="50" height="50" relative="1" as="geometry">
            <mxPoint x="290" y="250" as="sourcePoint" />
            <mxPoint x="360" y="250" as="targetPoint" />
          </mxGeometry>
        </mxCell>
        <mxCell id="P5JAm0jgZ5g8ydLUoScI-21" value="1" style="text;html=1;align=center;verticalAlign=middle;resizable=0;points=[];autosize=1;" vertex="1" parent="1">
          <mxGeometry x="50" y="90" width="20" height="20" as="geometry" />
        </mxCell>
        <mxCell id="P5JAm0jgZ5g8ydLUoScI-22" value="4" style="text;html=1;align=center;verticalAlign=middle;resizable=0;points=[];autosize=1;" vertex="1" parent="1">
          <mxGeometry x="380" y="90" width="20" height="20" as="geometry" />
        </mxCell>
        <mxCell id="P5JAm0jgZ5g8ydLUoScI-23" value="5" style="text;html=1;align=center;verticalAlign=middle;resizable=0;points=[];autosize=1;" vertex="1" parent="1">
          <mxGeometry x="620" y="90" width="20" height="20" as="geometry" />
        </mxCell>
        <mxCell id="P5JAm0jgZ5g8ydLUoScI-24" value="6" style="text;html=1;align=center;verticalAlign=middle;resizable=0;points=[];autosize=1;" vertex="1" parent="1">
          <mxGeometry x="380" y="270" width="20" height="20" as="geometry" />
        </mxCell>
      </root>
    </mxGraphModel>
  </diagram>
</mxfile>
